<svg width="121" height="40" viewBox="0 0 121 40" fill="none" xmlns="http://www.w3.org/2000/svg">
<rect x="0.75" y="0.5" width="119" height="39" rx="6.5" fill="black"/>
<rect x="0.75" y="0.5" width="119" height="39" rx="6.5" stroke="#A6A6A6"/>
<path d="M81.7759 19.201V21.492H80.3399V22.9944H81.7759V28.0994C81.7759 29.8426 82.5645 30.5398 84.5484 30.5398C84.897 30.5398 85.2291 30.4983 85.5196 30.4485V28.9627C85.2706 28.9876 85.1128 29.0042 84.8389 29.0042C83.9507 29.0042 83.5606 28.5892 83.5606 27.6429V22.9944H85.5196V21.492H83.5606V19.201H81.7759Z" fill="white"/>
<path d="M90.5734 30.6644C93.2131 30.6644 94.8317 28.8963 94.8317 25.9661C94.8317 23.0525 93.2048 21.2762 90.5734 21.2762C87.9338 21.2762 86.3068 23.0525 86.3068 25.9661C86.3068 28.8963 87.9255 30.6644 90.5734 30.6644ZM90.5734 29.0789C89.0212 29.0789 88.1496 27.9417 88.1496 25.9661C88.1496 24.0071 89.0212 22.8616 90.5734 22.8616C92.1174 22.8616 92.9973 24.0071 92.9973 25.9661C92.9973 27.9334 92.1174 29.0789 90.5734 29.0789Z" fill="white"/>
<path d="M96.2166 30.49H98.0013V25.1526C98.0013 23.8826 98.9559 23.0276 100.309 23.0276C100.624 23.0276 101.156 23.0857 101.305 23.1356V21.3758C101.114 21.326 100.774 21.3011 100.508 21.3011C99.3294 21.3011 98.325 21.9485 98.0677 22.8367H97.9349V21.4505H96.2166V30.49Z" fill="white"/>
<path d="M105.736 22.7952C107.056 22.7952 107.919 23.7166 107.961 25.136H103.395C103.495 23.7249 104.416 22.7952 105.736 22.7952ZM107.953 28.0496C107.621 28.7552 106.882 29.1453 105.803 29.1453C104.375 29.1453 103.454 28.1409 103.395 26.5555V26.4559H109.779V25.8333C109.779 22.9944 108.26 21.2762 105.745 21.2762C103.196 21.2762 101.578 23.1107 101.578 25.9993C101.578 28.888 103.163 30.6644 105.753 30.6644C107.82 30.6644 109.264 29.6683 109.671 28.0496H107.953Z" fill="white"/>
<path d="M70.0723 27.1519C70.21 29.3716 72.0598 30.7912 74.8129 30.7912C77.7553 30.7912 79.5964 29.3028 79.5964 26.9282C79.5964 25.0612 78.5468 24.0288 76.0002 23.4352L74.6322 23.0996C73.0147 22.7211 72.3609 22.2135 72.3609 21.3273C72.3609 20.2088 73.3761 19.4775 74.8989 19.4775C76.3443 19.4775 77.3423 20.1916 77.523 21.3359H79.3986C79.2867 19.2452 77.4456 17.774 74.9247 17.774C72.2146 17.774 70.4079 19.2452 70.4079 21.4564C70.4079 23.2803 71.4317 24.3643 73.6772 24.8892L75.2775 25.2763C76.9207 25.6635 77.6434 26.2313 77.6434 27.1777C77.6434 28.2789 76.5078 29.0791 74.9591 29.0791C73.2987 29.0791 72.1458 28.3306 71.9823 27.1519H70.0723Z" fill="white"/>
<path d="M51.585 21.3011C50.3565 21.3011 49.294 21.9153 48.7461 22.9446H48.6133V21.4505H46.8951V33.4949H48.6797V29.1204H48.8208C49.294 30.075 50.315 30.6395 51.6016 30.6395C53.8843 30.6395 55.337 28.8382 55.337 25.9661C55.337 23.094 53.8843 21.3011 51.585 21.3011ZM51.0787 29.0374C49.5845 29.0374 48.6465 27.8587 48.6465 25.9744C48.6465 24.0818 49.5845 22.9031 51.087 22.9031C52.5977 22.9031 53.5025 24.0569 53.5025 25.9661C53.5025 27.8836 52.5977 29.0374 51.0787 29.0374Z" fill="white"/>
<path d="M61.5818 21.3011C60.3533 21.3011 59.2908 21.9153 58.7429 22.9446H58.6101V21.4505H56.8919V33.4949H58.6765V29.1204H58.8176C59.2908 30.075 60.3118 30.6395 61.5984 30.6395C63.8811 30.6395 65.3338 28.8382 65.3338 25.9661C65.3338 23.094 63.8811 21.3011 61.5818 21.3011ZM61.0755 29.0374C59.5813 29.0374 58.6433 27.8587 58.6433 25.9744C58.6433 24.0818 59.5813 22.9031 61.0838 22.9031C62.5945 22.9031 63.4993 24.0569 63.4993 25.9661C63.4993 27.8836 62.5945 29.0374 61.0755 29.0374Z" fill="white"/>
<path d="M43.6931 30.49H45.7407L41.2583 18.0752H39.1848L34.7024 30.49H36.6812L37.8255 27.1949H42.5574L43.6931 30.49ZM40.1226 20.3293H40.2689L42.067 25.5774H38.3159L40.1226 20.3293Z" fill="white"/>
<path d="M35.9011 8.71094V14.7H38.0635C39.8481 14.7 40.8816 13.6001 40.8816 11.6868C40.8816 9.80249 39.8398 8.71094 38.0635 8.71094H35.9011ZM36.8308 9.55762H37.9597C39.2007 9.55762 39.9353 10.3462 39.9353 11.6992C39.9353 13.073 39.2131 13.8533 37.9597 13.8533H36.8308V9.55762Z" fill="white"/>
<path d="M44.0467 14.7871C45.3665 14.7871 46.1758 13.9031 46.1758 12.438C46.1758 10.9812 45.3624 10.093 44.0467 10.093C42.7269 10.093 41.9134 10.9812 41.9134 12.438C41.9134 13.9031 42.7227 14.7871 44.0467 14.7871ZM44.0467 13.9944C43.2706 13.9944 42.8348 13.4258 42.8348 12.438C42.8348 11.4585 43.2706 10.8857 44.0467 10.8857C44.8187 10.8857 45.2586 11.4585 45.2586 12.438C45.2586 13.4216 44.8187 13.9944 44.0467 13.9944Z" fill="white"/>
<path d="M53.068 10.1802H52.1756L51.3705 13.6292H51.2999L50.3702 10.1802H49.5152L48.5855 13.6292H48.5191L47.7098 10.1802H46.805L48.0501 14.7H48.9674L49.8971 11.3713H49.9676L50.9015 14.7H51.827L53.068 10.1802Z" fill="white"/>
<path d="M54.0956 14.7H54.9879V12.0562C54.9879 11.3506 55.4071 10.9106 56.067 10.9106C56.727 10.9106 57.0424 11.2717 57.0424 11.998V14.7H57.9347V11.7739C57.9347 10.699 57.3786 10.093 56.37 10.093C55.6894 10.093 55.2411 10.396 55.0211 10.8982H54.9547V10.1802H54.0956V14.7Z" fill="white"/>
<path d="M59.34 14.7H60.2324V8.41626H59.34V14.7Z" fill="white"/>
<path d="M63.5884 14.7871C64.9082 14.7871 65.7175 13.9031 65.7175 12.438C65.7175 10.9812 64.9041 10.093 63.5884 10.093C62.2686 10.093 61.4551 10.9812 61.4551 12.438C61.4551 13.9031 62.2644 14.7871 63.5884 14.7871ZM63.5884 13.9944C62.8123 13.9944 62.3765 13.4258 62.3765 12.438C62.3765 11.4585 62.8123 10.8857 63.5884 10.8857C64.3604 10.8857 64.8003 11.4585 64.8003 12.438C64.8003 13.4216 64.3604 13.9944 63.5884 13.9944Z" fill="white"/>
<path d="M68.3763 14.0234C67.8907 14.0234 67.5379 13.7869 67.5379 13.3801C67.5379 12.9817 67.8201 12.77 68.4427 12.7285L69.5467 12.658V13.0356C69.5467 13.5959 69.0486 14.0234 68.3763 14.0234ZM68.148 14.7747C68.7415 14.7747 69.2354 14.5173 69.5052 14.0649H69.5757V14.7H70.4349V11.6121C70.4349 10.6575 69.7957 10.093 68.6626 10.093C67.6375 10.093 66.907 10.5911 66.8157 11.3672H67.679C67.7786 11.0476 68.1231 10.865 68.6211 10.865C69.2312 10.865 69.5467 11.1348 69.5467 11.6121V12.0022L68.3223 12.0728C67.2474 12.1392 66.6414 12.6082 66.6414 13.4216C66.6414 14.2476 67.2764 14.7747 68.148 14.7747Z" fill="white"/>
<path d="M73.463 14.7747C74.0855 14.7747 74.6126 14.48 74.8824 13.9861H74.953V14.7H75.808V8.41626H74.9156V10.8982H74.8492C74.6043 10.4001 74.0814 10.1055 73.463 10.1055C72.3216 10.1055 71.587 11.0103 71.587 12.438C71.587 13.8699 72.3133 14.7747 73.463 14.7747ZM73.7162 10.9065C74.4632 10.9065 74.9322 11.5 74.9322 12.4421C74.9322 13.3884 74.4674 13.9736 73.7162 13.9736C72.9608 13.9736 72.5084 13.3967 72.5084 12.438C72.5084 11.4875 72.9649 10.9065 73.7162 10.9065Z" fill="white"/>
<path d="M81.5944 14.7871C82.9143 14.7871 83.7236 13.9031 83.7236 12.438C83.7236 10.9812 82.9101 10.093 81.5944 10.093C80.2746 10.093 79.4611 10.9812 79.4611 12.438C79.4611 13.9031 80.2705 14.7871 81.5944 14.7871ZM81.5944 13.9944C80.8183 13.9944 80.3825 13.4258 80.3825 12.438C80.3825 11.4585 80.8183 10.8857 81.5944 10.8857C82.3664 10.8857 82.8063 11.4585 82.8063 12.438C82.8063 13.4216 82.3664 13.9944 81.5944 13.9944Z" fill="white"/>
<path d="M84.9048 14.7H85.7971V12.0562C85.7971 11.3506 86.2163 10.9106 86.8762 10.9106C87.5361 10.9106 87.8516 11.2717 87.8516 11.998V14.7H88.7439V11.7739C88.7439 10.699 88.1877 10.093 87.1792 10.093C86.4985 10.093 86.0503 10.396 85.8303 10.8982H85.7639V10.1802H84.9048V14.7Z" fill="white"/>
<path d="M92.8536 9.05542V10.2009H92.1356V10.9521H92.8536V13.5046C92.8536 14.3762 93.2479 14.7249 94.2398 14.7249C94.4142 14.7249 94.5802 14.7041 94.7254 14.6792V13.9363C94.6009 13.9487 94.5221 13.957 94.3851 13.957C93.941 13.957 93.7459 13.7495 93.7459 13.2764V10.9521H94.7254V10.2009H93.7459V9.05542H92.8536Z" fill="white"/>
<path d="M95.9232 14.7H96.8156V12.0603C96.8156 11.3755 97.2223 10.9148 97.9528 10.9148C98.5836 10.9148 98.9198 11.28 98.9198 12.0022V14.7H99.8122V11.7822C99.8122 10.7073 99.2187 10.0972 98.2558 10.0972C97.5751 10.0972 97.0978 10.4001 96.8778 10.9065H96.8073V8.41626H95.9232V14.7Z" fill="white"/>
<path d="M103.031 10.8525C103.691 10.8525 104.123 11.3132 104.144 12.0229H101.861C101.911 11.3174 102.371 10.8525 103.031 10.8525ZM104.139 13.4797C103.973 13.8325 103.604 14.0276 103.064 14.0276C102.351 14.0276 101.89 13.5254 101.861 12.7327V12.6829H105.052V12.3716C105.052 10.9521 104.293 10.093 103.035 10.093C101.761 10.093 100.952 11.0103 100.952 12.4546C100.952 13.8989 101.745 14.7871 103.039 14.7871C104.073 14.7871 104.795 14.2891 104.998 13.4797H104.139Z" fill="white"/>
<path d="M25.019 20.3008C25.0407 18.6198 25.9434 17.0292 27.3756 16.1488C26.4721 14.8584 24.9588 14.0403 23.3844 13.9911C21.7052 13.8148 20.0772 14.9959 19.2215 14.9959C18.3492 14.9959 17.0317 14.0086 15.613 14.0378C13.7637 14.0975 12.0398 15.1489 11.1401 16.7656C9.20607 20.1141 10.6487 25.0351 12.5013 27.7417C13.4282 29.0671 14.5115 30.5475 15.9289 30.495C17.316 30.4375 17.834 29.6105 19.5083 29.6105C21.1671 29.6105 21.6531 30.495 23.0993 30.4616C24.5877 30.4375 25.5254 29.1304 26.4198 27.7925C27.0858 26.8481 27.5983 25.8044 27.9382 24.7C26.1891 23.9602 25.021 22.2 25.019 20.3008Z" fill="white"/>
<path d="M22.2873 12.2111C23.0989 11.2369 23.4987 9.98469 23.4018 8.72046C22.162 8.85068 21.0168 9.44324 20.1943 10.3801C19.39 11.2954 18.9714 12.5255 19.0506 13.7415C20.2908 13.7542 21.5101 13.1777 22.2873 12.2111Z" fill="white"/>
</svg>
