<svg width="136" height="40" viewBox="0 0 136 40" fill="none" xmlns="http://www.w3.org/2000/svg">
<rect x="0.75" y="0.5" width="134" height="39" rx="4.5" fill="black"/>
<rect x="0.75" y="0.5" width="134" height="39" rx="4.5" stroke="#A6A6A6"/>
<path d="M68.386 21.7511C66.034 21.7511 64.117 23.5401 64.117 26.0041C64.117 28.4531 66.034 30.2571 68.386 30.2571C70.739 30.2571 72.656 28.4531 72.656 26.0041C72.655 23.5401 70.738 21.7511 68.386 21.7511ZM68.386 28.5831C67.097 28.5831 65.986 27.5201 65.986 26.0051C65.986 24.4741 67.098 23.4271 68.386 23.4271C69.675 23.4271 70.786 24.4741 70.786 26.0051C70.786 27.5191 69.675 28.5831 68.386 28.5831ZM59.072 21.7511C56.72 21.7511 54.803 23.5401 54.803 26.0041C54.803 28.4531 56.72 30.2571 59.072 30.2571C61.425 30.2571 63.342 28.4531 63.342 26.0041C63.342 23.5401 61.425 21.7511 59.072 21.7511ZM59.072 28.5831C57.783 28.5831 56.672 27.5201 56.672 26.0051C56.672 24.4741 57.784 23.4271 59.072 23.4271C60.361 23.4271 61.472 24.4741 61.472 26.0051C61.473 27.5191 60.361 28.5831 59.072 28.5831ZM47.994 23.0571V24.8611H52.312C52.183 25.8761 51.845 26.6171 51.329 27.1321C50.701 27.7601 49.718 28.4531 47.994 28.4531C45.336 28.4531 43.258 26.3101 43.258 23.6521C43.258 20.9941 45.336 18.8511 47.994 18.8511C49.428 18.8511 50.475 19.4151 51.248 20.1401L52.521 18.8671C51.441 17.8361 50.008 17.0471 47.994 17.0471C44.353 17.0471 41.292 20.0111 41.292 23.6521C41.292 27.2931 44.353 30.2571 47.994 30.2571C49.959 30.2571 51.442 29.6121 52.601 28.4041C53.793 27.2121 54.164 25.5361 54.164 24.1831C54.164 23.7651 54.132 23.3781 54.067 23.0561H47.994V23.0571ZM93.302 24.4581C92.948 23.5081 91.868 21.7511 89.661 21.7511C87.47 21.7511 85.649 23.4751 85.649 26.0041C85.649 28.3881 87.454 30.2571 89.87 30.2571C91.819 30.2571 92.947 29.0651 93.415 28.3721L91.965 27.4051C91.482 28.1141 90.821 28.5811 89.87 28.5811C88.92 28.5811 88.243 28.1461 87.808 27.2921L93.495 24.9401L93.302 24.4581ZM87.502 25.8761C87.454 24.2321 88.775 23.3951 89.726 23.3951C90.467 23.3951 91.095 23.7661 91.305 24.2971L87.502 25.8761ZM82.879 30.0001H84.747V17.4991H82.879V30.0001ZM79.817 22.7021H79.753C79.334 22.2021 78.528 21.7511 77.514 21.7511C75.387 21.7511 73.438 23.6201 73.438 26.0211C73.438 28.4051 75.387 30.2581 77.514 30.2581C78.529 30.2581 79.334 29.8071 79.753 29.2921H79.817V29.9041C79.817 31.5311 78.947 32.4011 77.546 32.4011C76.402 32.4011 75.693 31.5801 75.403 30.8871L73.776 31.5641C74.243 32.6911 75.483 34.0771 77.546 34.0771C79.737 34.0771 81.59 32.7881 81.59 29.6461V22.0101H79.818V22.7021H79.817ZM77.675 28.5831C76.386 28.5831 75.307 27.5031 75.307 26.0211C75.307 24.5221 76.386 23.4271 77.675 23.4271C78.947 23.4271 79.946 24.5221 79.946 26.0211C79.946 27.5031 78.947 28.5831 77.675 28.5831ZM102.056 17.4991H97.585V30.0001H99.45V25.2641H102.055C104.123 25.2641 106.157 23.7671 106.157 21.3821C106.157 18.9971 104.124 17.4991 102.056 17.4991ZM102.104 23.5241H99.45V19.2391H102.104C103.499 19.2391 104.291 20.3941 104.291 21.3821C104.291 22.3501 103.499 23.5241 102.104 23.5241ZM113.636 21.7291C112.285 21.7291 110.886 22.3241 110.307 23.6431L111.963 24.3341C112.317 23.6431 112.977 23.4171 113.668 23.4171C114.633 23.4171 115.614 23.9961 115.63 25.0251V25.1541C115.292 24.9611 114.568 24.6721 113.684 24.6721C111.899 24.6721 110.081 25.6531 110.081 27.4861C110.081 29.1591 111.545 30.2361 113.185 30.2361C114.439 30.2361 115.131 29.6731 115.565 29.0131H115.629V29.9781H117.431V25.1851C117.432 22.9671 115.774 21.7291 113.636 21.7291ZM113.41 28.5801C112.8 28.5801 111.947 28.2741 111.947 27.5181C111.947 26.5531 113.009 26.1831 113.926 26.1831C114.745 26.1831 115.132 26.3601 115.63 26.6011C115.485 27.7601 114.488 28.5801 113.41 28.5801ZM123.993 22.0021L121.854 27.4221H121.79L119.57 22.0021H117.56L120.889 29.5771L118.991 33.7911H120.937L126.068 22.0021H123.993ZM107.187 30.0001H109.052V17.4991H107.187V30.0001Z" fill="white"/>
<path d="M47.668 10.2429C47.668 11.0809 47.4201 11.7479 46.923 12.2459C46.359 12.8379 45.6231 13.1339 44.7191 13.1339C43.8531 13.1339 43.1161 12.8339 42.5111 12.2339C41.9051 11.6329 41.6021 10.8889 41.6021 10.0009C41.6021 9.11194 41.9051 8.36794 42.5111 7.76794C43.1161 7.16694 43.8531 6.86694 44.7191 6.86694C45.1491 6.86694 45.5601 6.95094 45.9501 7.11794C46.3411 7.28594 46.654 7.50894 46.8881 7.78794L46.361 8.31594C45.964 7.84094 45.417 7.60394 44.718 7.60394C44.086 7.60394 43.54 7.82594 43.079 8.26994C42.618 8.71394 42.3881 9.29094 42.3881 9.99994C42.3881 10.7089 42.618 11.2859 43.079 11.7299C43.54 12.1739 44.086 12.3959 44.718 12.3959C45.388 12.3959 45.9471 12.1729 46.3941 11.7259C46.6841 11.4349 46.852 11.0299 46.897 10.5109H44.718V9.78994H47.625C47.655 9.94694 47.668 10.0979 47.668 10.2429Z" fill="white"/>
<path d="M52.2781 7.737H49.5461V9.639H52.0101V10.36H49.5461V12.262H52.2781V13H48.7751V7H52.2781V7.737Z" fill="white"/>
<path d="M55.529 13H54.758V7.737H53.082V7H57.205V7.737H55.529V13Z" fill="white"/>
<path d="M60.188 13V7H60.959V13H60.188Z" fill="white"/>
<path d="M64.3781 13H63.6072V7.737H61.9312V7H66.0542V7.737H64.3781V13Z" fill="white"/>
<path d="M73.8589 12.225C73.2689 12.831 72.5359 13.134 71.6589 13.134C70.7819 13.134 70.0489 12.831 69.4599 12.225C68.8699 11.619 68.5759 10.877 68.5759 9.99999C68.5759 9.12299 68.8699 8.38099 69.4599 7.77499C70.0489 7.16899 70.7819 6.86499 71.6589 6.86499C72.5309 6.86499 73.2629 7.16999 73.8549 7.77899C74.4469 8.38799 74.7429 9.12799 74.7429 9.99999C74.7429 10.877 74.4479 11.619 73.8589 12.225ZM70.0289 11.722C70.4729 12.172 71.0159 12.396 71.6589 12.396C72.3019 12.396 72.8459 12.171 73.2889 11.722C73.7329 11.272 73.9559 10.698 73.9559 9.99999C73.9559 9.30199 73.7329 8.72799 73.2889 8.27799C72.8459 7.82799 72.3019 7.60399 71.6589 7.60399C71.0159 7.60399 70.4729 7.82899 70.0289 8.27799C69.5859 8.72799 69.3629 9.30199 69.3629 9.99999C69.3629 10.698 69.5859 11.272 70.0289 11.722Z" fill="white"/>
<path d="M75.8249 13V7H76.763L79.679 11.667H79.7119L79.679 10.511V7H80.4499V13H79.6449L76.594 8.106H76.5609L76.594 9.262V13H75.8249Z" fill="white"/>
<path d="M47.668 10.2429C47.668 11.0809 47.4201 11.7479 46.923 12.2459C46.359 12.8379 45.6231 13.1339 44.7191 13.1339C43.8531 13.1339 43.1161 12.8339 42.5111 12.2339C41.9051 11.6329 41.6021 10.8889 41.6021 10.0009C41.6021 9.11194 41.9051 8.36794 42.5111 7.76794C43.1161 7.16694 43.8531 6.86694 44.7191 6.86694C45.1491 6.86694 45.5601 6.95094 45.9501 7.11794C46.3411 7.28594 46.654 7.50894 46.8881 7.78794L46.361 8.31594C45.964 7.84094 45.417 7.60394 44.718 7.60394C44.086 7.60394 43.54 7.82594 43.079 8.26994C42.618 8.71394 42.3881 9.29094 42.3881 9.99994C42.3881 10.7089 42.618 11.2859 43.079 11.7299C43.54 12.1739 44.086 12.3959 44.718 12.3959C45.388 12.3959 45.9471 12.1729 46.3941 11.7259C46.6841 11.4349 46.852 11.0299 46.897 10.5109H44.718V9.78994H47.625C47.655 9.94694 47.668 10.0979 47.668 10.2429Z" stroke="white" stroke-width="0.2" stroke-miterlimit="10"/>
<path d="M52.2781 7.737H49.5461V9.639H52.0101V10.36H49.5461V12.262H52.2781V13H48.7751V7H52.2781V7.737Z" stroke="white" stroke-width="0.2" stroke-miterlimit="10"/>
<path d="M55.529 13H54.758V7.737H53.082V7H57.205V7.737H55.529V13Z" stroke="white" stroke-width="0.2" stroke-miterlimit="10"/>
<path d="M60.188 13V7H60.959V13H60.188Z" stroke="white" stroke-width="0.2" stroke-miterlimit="10"/>
<path d="M64.3781 13H63.6072V7.737H61.9312V7H66.0542V7.737H64.3781V13Z" stroke="white" stroke-width="0.2" stroke-miterlimit="10"/>
<path d="M73.8589 12.225C73.2689 12.831 72.5359 13.134 71.6589 13.134C70.7819 13.134 70.0489 12.831 69.4599 12.225C68.8699 11.619 68.5759 10.877 68.5759 9.99999C68.5759 9.12299 68.8699 8.38099 69.4599 7.77499C70.0489 7.16899 70.7819 6.86499 71.6589 6.86499C72.5309 6.86499 73.2629 7.16999 73.8549 7.77899C74.4469 8.38799 74.7429 9.12799 74.7429 9.99999C74.7429 10.877 74.4479 11.619 73.8589 12.225ZM70.0289 11.722C70.4729 12.172 71.0159 12.396 71.6589 12.396C72.3019 12.396 72.8459 12.171 73.2889 11.722C73.7329 11.272 73.9559 10.698 73.9559 9.99999C73.9559 9.30199 73.7329 8.72799 73.2889 8.27799C72.8459 7.82799 72.3019 7.60399 71.6589 7.60399C71.0159 7.60399 70.4729 7.82899 70.0289 8.27799C69.5859 8.72799 69.3629 9.30199 69.3629 9.99999C69.3629 10.698 69.5859 11.272 70.0289 11.722Z" stroke="white" stroke-width="0.2" stroke-miterlimit="10"/>
<path d="M75.8249 13V7H76.763L79.679 11.667H79.7119L79.679 10.511V7H80.4499V13H79.6449L76.594 8.106H76.5609L76.594 9.262V13H75.8249Z" stroke="white" stroke-width="0.2" stroke-miterlimit="10"/>
<g filter="url(#filter0_ii_6295_6987)">
<path d="M10.686 7.53797C10.395 7.84597 10.223 8.32397 10.223 8.94297V31.059C10.223 31.679 10.395 32.156 10.686 32.464L10.76 32.536L23.149 20.147V20.001V19.855L10.76 7.46497L10.686 7.53797Z" fill="url(#paint0_linear_6295_6987)"/>
<path d="M27.278 24.278L23.149 20.147V20.001V19.855L27.279 15.725L27.372 15.778L32.265 18.558C33.662 19.352 33.662 20.651 32.265 21.446L27.372 24.226L27.278 24.278Z" fill="url(#paint1_linear_6295_6987)"/>
<g filter="url(#filter1_i_6295_6987)">
<path d="M27.372 24.225L23.148 20.001L10.686 32.464C11.146 32.952 11.907 33.012 12.764 32.526L27.372 24.225Z" fill="url(#paint2_linear_6295_6987)"/>
</g>
<path d="M27.372 15.7769L12.764 7.47694C11.907 6.98994 11.146 7.05094 10.686 7.53894L23.149 20.0019L27.372 15.7769Z" fill="url(#paint3_linear_6295_6987)"/>
</g>
<defs>
<filter id="filter0_ii_6295_6987" x="10.223" y="7.14087" width="23.0897" height="25.7208" filterUnits="userSpaceOnUse" color-interpolation-filters="sRGB">
<feFlood flood-opacity="0" result="BackgroundImageFix"/>
<feBlend mode="normal" in="SourceGraphic" in2="BackgroundImageFix" result="shape"/>
<feColorMatrix in="SourceAlpha" type="matrix" values="0 0 0 0 0 0 0 0 0 0 0 0 0 0 0 0 0 0 127 0" result="hardAlpha"/>
<feOffset dy="-0.15"/>
<feComposite in2="hardAlpha" operator="arithmetic" k2="-1" k3="1"/>
<feColorMatrix type="matrix" values="0 0 0 0 0 0 0 0 0 0 0 0 0 0 0 0 0 0 0.12 0"/>
<feBlend mode="normal" in2="shape" result="effect1_innerShadow_6295_6987"/>
<feColorMatrix in="SourceAlpha" type="matrix" values="0 0 0 0 0 0 0 0 0 0 0 0 0 0 0 0 0 0 127 0" result="hardAlpha"/>
<feOffset dy="0.15"/>
<feComposite in2="hardAlpha" operator="arithmetic" k2="-1" k3="1"/>
<feColorMatrix type="matrix" values="0 0 0 0 1 0 0 0 0 1 0 0 0 0 1 0 0 0 0.25 0"/>
<feBlend mode="normal" in2="effect1_innerShadow_6295_6987" result="effect2_innerShadow_6295_6987"/>
</filter>
<filter id="filter1_i_6295_6987" x="10.686" y="20.001" width="16.686" height="12.8607" filterUnits="userSpaceOnUse" color-interpolation-filters="sRGB">
<feFlood flood-opacity="0" result="BackgroundImageFix"/>
<feBlend mode="normal" in="SourceGraphic" in2="BackgroundImageFix" result="shape"/>
<feColorMatrix in="SourceAlpha" type="matrix" values="0 0 0 0 0 0 0 0 0 0 0 0 0 0 0 0 0 0 127 0" result="hardAlpha"/>
<feOffset dy="-0.15"/>
<feComposite in2="hardAlpha" operator="arithmetic" k2="-1" k3="1"/>
<feColorMatrix type="matrix" values="0 0 0 0 0 0 0 0 0 0 0 0 0 0 0 0 0 0 0.08 0"/>
<feBlend mode="normal" in2="shape" result="effect1_innerShadow_6295_6987"/>
</filter>
<linearGradient id="paint0_linear_6295_6987" x1="22.0508" y1="8.70897" x2="5.26882" y2="25.491" gradientUnits="userSpaceOnUse">
<stop stop-color="#00A0FF"/>
<stop offset="0.0066" stop-color="#00A1FF"/>
<stop offset="0.2601" stop-color="#00BEFF"/>
<stop offset="0.5122" stop-color="#00D2FF"/>
<stop offset="0.7604" stop-color="#00DFFF"/>
<stop offset="1" stop-color="#00E3FF"/>
</linearGradient>
<linearGradient id="paint1_linear_6295_6987" x1="34.0835" y1="20.001" x2="9.88765" y2="20.001" gradientUnits="userSpaceOnUse">
<stop stop-color="#FFE000"/>
<stop offset="0.4087" stop-color="#FFBD00"/>
<stop offset="0.7754" stop-color="#FFA500"/>
<stop offset="1" stop-color="#FF9C00"/>
</linearGradient>
<linearGradient id="paint2_linear_6295_6987" x1="25.0781" y1="22.2949" x2="2.31964" y2="45.0534" gradientUnits="userSpaceOnUse">
<stop stop-color="#FF3A44"/>
<stop offset="1" stop-color="#C31162"/>
</linearGradient>
<linearGradient id="paint3_linear_6295_6987" x1="7.54743" y1="0.176745" x2="17.7097" y2="10.339" gradientUnits="userSpaceOnUse">
<stop stop-color="#32A071"/>
<stop offset="0.0685" stop-color="#2DA771"/>
<stop offset="0.4762" stop-color="#15CF74"/>
<stop offset="0.8009" stop-color="#06E775"/>
<stop offset="1" stop-color="#00F076"/>
</linearGradient>
</defs>
</svg>
